<?xml version="1.0" encoding="UTF-8" standalone="no"?>
<!-- Created with Inkscape (http://www.inkscape.org/) -->

<svg
   xmlns:dc="http://purl.org/dc/elements/1.1/"
   xmlns:cc="http://creativecommons.org/ns#"
   xmlns:rdf="http://www.w3.org/1999/02/22-rdf-syntax-ns#"
   xmlns:svg="http://www.w3.org/2000/svg"
   xmlns="http://www.w3.org/2000/svg"
   xmlns:sodipodi="http://sodipodi.sourceforge.net/DTD/sodipodi-0.dtd"
   xmlns:inkscape="http://www.inkscape.org/namespaces/inkscape"
   width="30.000088"
   height="908.5"
   id="svg2"
   version="1.1"
   inkscape:version="0.48.4 r9939"
   sodipodi:docname="bullets.svg">
  <defs
     id="defs4" />
  <sodipodi:namedview
     id="base"
     pagecolor="#ffffff"
     bordercolor="#666666"
     borderopacity="1.0"
     inkscape:pageopacity="0"
     inkscape:pageshadow="2"
     inkscape:zoom="2.9032638"
     inkscape:cx="-111.04518"
     inkscape:cy="37.425266"
     inkscape:document-units="px"
     inkscape:current-layer="layer1"
     showgrid="false"
     fit-margin-top="0"
     fit-margin-left="0"
     fit-margin-right="0"
     fit-margin-bottom="0"
     inkscape:window-width="1440"
     inkscape:window-height="836"
     inkscape:window-x="0"
     inkscape:window-y="27"
     inkscape:window-maximized="1"
     inkscape:showpageshadow="true"
     showborder="true"
     borderlayer="false" />
  <metadata
     id="metadata7">
    <rdf:RDF>
      <cc:Work
         rdf:about="">
        <dc:format>image/svg+xml</dc:format>
        <dc:type
           rdf:resource="http://purl.org/dc/dcmitype/StillImage" />
        <dc:title />
      </cc:Work>
    </rdf:RDF>
  </metadata>
  <g
     inkscape:label="Calque 1"
     inkscape:groupmode="layer"
     id="layer1"
     transform="translate(-272.00285,-110.28744)">
    <g
       transform="matrix(0.26666667,0,0,0.26666667,187.00289,461.82419)"
       id="layer1-1"
       inkscape:label="Calque 1"
       style="fill:#999999;fill-opacity:1">
      <path
         inkscape:connector-curvature="0"
         d="m 407.5,476.11218 -8.75,0 0,21.25 8.75,0 0,-21.25 z m -56.25,0 -8.75,0 0,21.25 8.75,0 0,-21.25 z m 67.5,100 -87.5,0 0,-50 87.5,0 0,50 z m 0,-87.5 -5.625,0 0,12.5 -20,0 0,-12.5 -36.25,0 0,12.5 -20,0 0,-12.5 -5.625,0 c -6.875,0 -12.5,5.625 -12.5,12.5 l 0,75 c 0,6.875 5.625,12.5 12.5,12.5 l 87.5,0 c 6.875,0 12.5,-5.625 12.5,-12.5 l 0,-75 c 0,-6.875 -5.625,-12.5 -12.5,-12.5"
         style="fill:#999999;fill-opacity:1;fill-rule:nonzero;stroke:none"
         id="path3202" />
    </g>
    <g
       transform="matrix(0.24,0,0,0.24,197.00289,-3.9794822)"
       id="layer1-7"
       inkscape:label="Calque 1"
       style="fill:#ffffff;fill-opacity:1">
      <g
         id="g3324"
         transform="matrix(1.25,0,0,-1.25,425,476.11218)"
         style="fill:#ffffff;fill-opacity:1">
        <path
           inkscape:connector-curvature="0"
           d="m 0,0 -45,0 c -5.5,0 -10,-4.5 -10,-10 l 0,-40 35,0 15,-15 0,15 5,0 c 5.5,0 10,4.5 10,10 l 0,30 C 10,-4.5 5.5,0 0,0 m -61,-56 0,31 -19,0 c -5.5,0 -10,-4.5 -10,-10 l 0,-30 c 0,-5.5 4.5,-10 10,-10 l 5,0 0,-15 15,15 25,0 c 5.5,0 10,4.5 10,10 l 0,9.102 C -25.322,-55.965 -25.659,-56 -26,-56 l -35,0 z"
           style="fill:#ffffff;fill-opacity:1;fill-rule:nonzero;stroke:none"
           id="path3326" />
      </g>
    </g>
    <g
       transform="matrix(0.27272697,0,0,0.27272697,184.73028,538.59792)"
       id="layer1-9"
       inkscape:label="Calque 1"
       style="fill:#ffffff;fill-opacity:1">
      <g
         id="g3664"
         transform="matrix(1.25,0,0,-1.25,395.44696,511.43612)"
         style="fill:#ffffff;fill-opacity:1">
        <path
           inkscape:connector-curvature="0"
           d="m 0,0 c -2.988,3.06 -2.988,8.018 0.002,11.078 2.989,3.059 7.836,3.059 10.826,0 C 13.818,8.02 13.818,3.06 10.828,0 7.838,-3.061 2.991,-3.061 0,0 m -5.043,-29.583 c 0,0 35.293,25.466 31.383,54.614 -0.086,0.643 -0.299,1.064 -0.562,1.344 -0.272,0.267 -0.684,0.486 -1.313,0.575 -28.486,3.999 -53.373,-32.114 -53.373,-32.114 -21.59,2.59 -20.017,-1.72 -29.873,-25.374 -1.885,-4.515 1.174,-6.066 4.525,-4.799 3.349,1.265 10.744,4.058 10.744,4.058 l 12.948,-13.248 c 0,0 -2.731,-7.567 -3.967,-10.995 -1.238,-3.429 0.277,-6.556 4.69,-4.63 23.117,10.086 27.327,8.479 24.798,30.569"
           style="fill:#ffffff;fill-opacity:1;fill-rule:nonzero;stroke:none"
           id="path3666" />
      </g>
    </g>
    <g
       transform="matrix(0.26666663,0,0,0.26666663,187.00291,381.82421)"
       id="layer1-15"
       inkscape:label="Calque 1"
       style="fill:#999999;fill-opacity:1">
      <g
         id="g3248"
         transform="matrix(1.25,0,0,-1.25,428.83,515.39718)"
         style="fill:#999999;fill-opacity:1">
        <path
           inkscape:connector-curvature="0"
           d="m 0,0 c -2.773,-1.447 -36.835,-19.259 -38.533,-20.144 -1.699,-0.887 -2.889,-1.002 -4.531,-1.002 -1.643,0 -2.832,0.115 -4.532,1.002 -1.698,0.885 -35.758,18.697 -38.533,20.144 -1.952,1.018 -1.935,-0.176 -1.935,-1.098 l 0,-36.679 c 0,-2.096 2.792,-4.795 4.959,-4.795 l 80.082,0 c 2.167,0 4.959,2.699 4.959,4.795 l 0,36.679 C 1.936,-0.176 1.954,1.018 0,0 m -85.095,10 c 2.441,-1.312 36.241,-19.468 37.499,-20.144 1.259,-0.676 2.889,-1.002 4.532,-1.002 1.642,0 3.272,0.326 4.531,1.002 1.258,0.676 35.057,18.832 37.499,20.144 2.442,1.311 4.754,5.428 0.266,5.428 l -84.594,0 c -4.484,0 -2.175,-4.117 0.267,-5.428"
           style="fill:#999999;fill-opacity:1;fill-rule:nonzero;stroke:none"
           id="path3250" />
      </g>
    </g>
    <g
       transform="matrix(0.25531915,0,0,0.25531915,191.25821,307.86518)"
       id="layer1-78"
       inkscape:label="Calque 1"
       style="fill:#ffffff;fill-opacity:1">
      <g
         id="g3228"
         transform="matrix(1.25,0,0,-1.25,408.2525,560.16218)"
         style="fill:#ffffff;fill-opacity:1">
        <path
           inkscape:connector-curvature="0"
           d="m 0,0 c -12.326,4.493 -16.266,8.282 -16.266,16.395 0,4.871 3.764,3.28 5.416,12.2 0.686,3.7 4.01,0.059 4.647,8.507 0,3.366 -1.815,4.203 -1.815,4.203 0,0 0.922,4.982 1.284,8.816 0.447,4.776 -2.76,17.119 -19.868,17.119 -17.107,0 -20.316,-12.343 -19.867,-17.119 0.362,-3.834 1.283,-8.816 1.283,-8.816 0,0 -1.814,-0.837 -1.814,-4.203 0.635,-8.448 3.959,-4.807 4.645,-8.507 1.654,-8.92 5.416,-7.329 5.416,-12.2 0,-8.113 -3.938,-11.902 -16.264,-16.395 -12.365,-4.506 -20.399,-9.1 -20.399,-12.233 l 0,-10.527 47,0 47,0 0,10.527 C 20.398,-9.1 12.365,-4.506 0,0"
           style="fill:#ffffff;fill-opacity:1;fill-rule:nonzero;stroke:none"
           id="path3230" />
      </g>
    </g>
    <g
       transform="matrix(0.30000065,0,0,0.30000065,130.14541,623.79277)"
       id="layer1-5"
       inkscape:label="Calque 1"
       style="fill:#999999;fill-opacity:1">
      <g
         id="g3244"
         transform="matrix(1.25,0,0,-1.25,530.53523,474.32562)"
         style="fill:#999999;fill-opacity:1">
        <path
           inkscape:connector-curvature="0"
           d="m 0,0 c -7.917,-7.917 -17.085,-15.485 -20.708,-11.861 -5.189,5.189 -8.388,9.707 -19.825,0.515 -11.438,-9.196 -2.654,-15.322 2.373,-20.35 5.8,-5.8 27.421,-0.305 48.792,21.063 C 32,10.739 37.498,32.359 31.694,38.161 26.667,43.188 20.54,51.97 11.349,40.532 2.154,29.098 6.671,25.897 11.861,20.708 15.484,17.085 7.917,7.918 0,0"
           style="fill:#999999;fill-opacity:1;fill-rule:nonzero;stroke:none"
           id="path3246" />
      </g>
    </g>
    <g
       transform="matrix(0.3,0,0,0.3,157.57432,698.65022)"
       id="layer1-71"
       inkscape:label="Calque 1"
       style="fill:#ffffff;fill-opacity:1">
      <g
         id="g3050"
         transform="matrix(1.25,0,0,-1.25,431.42857,482.29075)"
         style="fill:#ffffff;fill-opacity:1">
        <path
           inkscape:connector-curvature="0"
           d="M 0,0 C -7.457,0 -13.5,6.044 -13.5,13.5 -13.5,20.956 -7.457,27 0,27 7.455,27 13.5,20.956 13.5,13.5 13.5,6.044 7.455,0 0,0 m 0,38.8 c -13.809,0 -25,-11.194 -25,-25 0,-23.869 25,-55 25,-55 0,0 25,31.131 25,55 0,13.806 -11.193,25 -25,25"
           style="fill:#999999;fill-opacity:1;fill-rule:nonzero;stroke:none"
           id="path3052" />
      </g>
    </g>
    <g
       transform="matrix(0.2409993,0,0,0.2409993,196.62815,235.48853)"
       id="layer1-0"
       inkscape:label="Calque 1"
       style="fill:#ffffff;fill-opacity:1">
      <g
         id="g3532"
         transform="matrix(1.25,0,0,-1.25,329.62278,576.42904)"
         style="fill:#ffffff;fill-opacity:1">
        <path
           inkscape:connector-curvature="0"
           d="m 0,0 c -1.04,-1.048 -1.04,-2.748 -0.001,-3.796 l 4.756,-4.646 c 1.041,-1.046 2.691,-0.608 3.731,0.44 L 33.024,16.124 25.503,24.681 0,0 z m 85.815,68.311 c -0.372,2.47 -1.653,1.947 -2.314,0.901 -0.661,-1.048 -3.605,-5.505 -4.814,-7.524 -1.203,-2.007 -4.158,-5.955 -9.669,-2.056 -5.741,4.059 -3.745,6.89 -2.742,8.798 1.002,1.913 4.089,7.276 4.534,7.949 0.444,0.673 -0.074,2.636 -1.855,1.813 C 67.171,77.369 56.341,73.063 54.837,66.896 53.305,60.61 56.123,55 50.587,49.423 l -6.711,-7.002 6.741,-7.838 8.274,7.853 c 1.973,1.983 6.178,3.906 9.989,3.043 8.165,-1.849 12.618,1.219 15.302,6.286 2.401,4.535 2.004,14.075 1.633,16.546 M 30.517,48.224 c -0.598,0.691 -1.339,0.708 -1.988,0.14 l -7.171,-6.256 c -0.563,-0.496 -0.637,-1.419 -0.133,-2 L 62.695,-7.08 c 0.968,-1.118 2.651,-1.236 3.758,-0.264 l 4.854,4.062 c 1.105,0.972 1.221,2.669 0.255,3.787 L 30.517,48.224 z M 1.974,50.807 c 4.667,3.623 8.536,1.126 13.704,-4.852 0.581,-0.67 1.362,0.113 1.804,0.502 0.442,0.388 7.258,6.517 7.59,6.807 0.333,0.292 0.735,0.84 0.203,1.454 -0.529,0.616 -2.47,3.124 -3.712,4.749 -9.04,11.826 24.732,19.844 19.541,19.974 -2.637,0.067 -13.229,0.19 -14.809,0.023 C 19.875,78.783 11.824,72.79 7.768,70.002 2.469,66.36 0.486,64.237 0.155,63.947 c -1.498,-1.312 -0.241,-4.339 -2.958,-6.718 -2.876,-2.526 -4.668,-0.622 -6.33,-2.078 -0.829,-0.73 -3.135,-2.457 -3.798,-3.039 -0.665,-0.584 -0.783,-1.57 -0.107,-2.353 0,0 6.318,-6.983 6.85,-7.595 0.531,-0.618 1.954,-1.138 2.838,-0.36 0.887,0.777 3.157,2.768 3.543,3.111 0.39,0.337 -0.254,4.313 1.781,5.892"
           style="fill:#ffffff;fill-opacity:1;fill-rule:nonzero;stroke:none"
           id="path3534" />
      </g>
    </g>
    <g
       transform="matrix(0.24,0,0,0.24,197.00289,156.02052)"
       id="layer1-2"
       inkscape:label="Calque 1"
       style="fill:#ffffff;fill-opacity:1">
      <g
         id="g3528"
         transform="matrix(1.25,0,0,-1.25,418.54125,570.93234)"
         style="fill:#ffffff;fill-opacity:1">
        <path
           inkscape:connector-curvature="0"
           d="M 0,0 C -0.318,-1.923 6.417,-5.083 7.059,0.542 9.951,25.899 4.978,33.198 4.978,33.198 l -6.973,-3.904 c 0,0 5.912,-5.627 1.995,-29.294 m 12.722,44.176 -41.625,23.31 c -3.262,1.827 -8.598,1.827 -11.86,0 l -41.625,-23.31 c -3.26,-1.826 -3.26,-4.815 0,-6.641 l 41.625,-23.308 c 3.262,-1.827 8.598,-1.827 11.86,0 l 26.908,15.067 -29.179,6.835 c -1.126,-0.278 -2.362,-0.435 -3.659,-0.435 -5.256,0 -9.518,2.535 -9.518,5.662 0,3.127 4.262,5.663 9.518,5.663 4.081,0 7.552,-1.532 8.904,-3.678 l 30.907,-10.143 7.744,4.337 c 3.26,1.826 3.26,4.815 0,6.641 M -68.323,19.659 c 2.319,-9.395 5.266,-13.501 15.11,-17.805 9.844,-4.303 14.519,-8.998 18.38,-8.998 3.861,0 8.239,4.113 18.083,8.416 9.844,4.304 7.218,5.614 9.537,15.009 l -27.62,-13.425 -33.49,16.803 z"
           style="fill:#ffffff;fill-opacity:1;fill-rule:nonzero;stroke:none"
           id="path3530" />
      </g>
    </g>
    <g
       transform="matrix(0.24,0,0,0.24,197.00289,76.020518)"
       id="layer1-12"
       inkscape:label="Calque 1"
       style="fill:#ffffff;fill-opacity:1">
      <g
         id="g3512"
         transform="matrix(1.25,0,0,-1.25,380.625,566.73718)"
         style="fill:#ffffff;fill-opacity:1">
        <path
           inkscape:connector-curvature="0"
           d="m 0,0 -9,0 0,10 -43,0 c 0,0 0.623,-8.99 1,-16.613 0.156,-3.16 1.086,-8.387 8.996,-8.387 l 75.008,0 c 7.91,0 8.82,5.228 8.996,8.387 C 42.436,1.227 43,10 43,10 L 0,10 0,0 z m -16.25,60.422 c 1.146,2.159 1.537,2.578 4.082,2.578 L 3.168,63 C 5.713,63 6.105,62.581 7.25,60.422 7.68,59.612 8.842,57.421 10.127,55 l -29.254,0 c 1.285,2.421 2.447,4.612 2.877,5.422 M -9,25 0,25 0,15 45.5,15 c 0,0 -0.74,22.289 -1,29.268 C 44.254,50.899 41.881,55 34.5,55 L 18.461,55 C 15.975,59.686 13.299,64.727 12.477,66.274 10.822,69.394 10.258,70 6.58,70 l -22.16,0 c -3.678,0 -4.242,-0.606 -5.897,-3.726 C -22.299,64.727 -24.975,59.686 -27.459,55 L -43.5,55 c -7.381,0 -9.727,-4.102 -10,-10.732 C -53.773,37.637 -54.5,15 -54.5,15 l 45.5,0 0,10 z"
           style="fill:#ffffff;fill-opacity:1;fill-rule:nonzero;stroke:none"
           id="path3514" />
      </g>
    </g>
    <g
       transform="matrix(0.29999916,0,0,0.29999916,174.50321,764.07924)"
       id="layer1-4"
       inkscape:label="Calque 1"
       style="fill:#999999;fill-opacity:1">
      <g
         id="g3292"
         transform="matrix(1.25,0,0,-1.25,418.0675,489.91732)"
         style="fill:#999999;fill-opacity:1">
        <path
           inkscape:connector-curvature="0"
           d="m 0,0 c -7.73,7.67 -18.538,8.086 -25.694,0.986 l -5.046,-5.008 c -1.944,-1.929 -1.955,-5.067 -0.026,-7.009 1.93,-1.944 5.069,-1.954 7.011,-0.026 l 5.044,5.007 c 3.707,3.681 8.561,2.154 11.727,-0.986 1.687,-1.673 2.615,-3.897 2.615,-6.258 0,-2.363 -0.928,-4.586 -2.613,-6.259 l -15.898,-15.77 c -7.268,-7.212 -10.679,-3.827 -12.134,-2.383 -1.943,1.929 -5.08,1.916 -7.009,-0.025 -1.93,-1.943 -1.918,-5.081 0.025,-7.009 3.337,-3.313 7.146,-4.954 11.139,-4.954 4.888,0 10.052,2.462 14.963,7.337 l 15.897,15.769 c 3.575,3.55 5.545,8.271 5.545,13.294 C 5.546,-8.271 3.576,-3.551 0,0 m -45.156,-57.427 -4.048,-4.019 c -3.509,-3.478 -9.216,-3.481 -12.723,0 -1.685,1.673 -2.612,3.894 -2.612,6.257 0,2.362 0.927,4.585 2.611,6.257 l 14.901,14.784 c 3.088,3.062 8.897,7.571 13.131,3.372 1.943,-1.93 5.081,-1.917 7.009,0.025 1.93,1.942 1.918,5.081 -0.025,7.009 -7.197,7.141 -17.834,5.822 -27.098,-3.37 l -14.901,-14.784 c -3.575,-3.549 -5.543,-8.27 -5.543,-13.293 0,-5.024 1.968,-9.744 5.544,-13.292 3.679,-3.651 8.51,-5.475 13.343,-5.475 4.834,0 9.667,1.824 13.347,5.477 l 4.051,4.02 c 1.942,1.928 1.953,5.066 0.023,7.009 -1.926,1.941 -5.067,1.952 -7.01,0.023"
           style="fill:#999999;fill-opacity:1;fill-rule:nonzero;stroke:none"
           id="path3294" />
      </g>
    </g>
    <g
       transform="matrix(0.2480945,0,0,0.2480945,193.96745,871.71132)"
       id="layer1-08"
       inkscape:label="Calque 1"
       style="fill:#999999;fill-opacity:1">
      <g
         id="g4020"
         transform="matrix(1.25,0,0,-1.25,416.55494,502.00301)"
         style="fill:#999999;fill-opacity:1">
        <path
           inkscape:connector-curvature="0"
           d="m 0,0 -44.994,23.191 c -6.162,3.247 -18.315,-3.025 -21.805,-8.545 -1.558,-2.466 -1.443,-4.249 -1.443,-5.257 l 0.554,-52.373 c 0.038,-1.111 1.438,-2.612 2.637,-3.348 2.496,-1.531 40.297,-25.13 41.369,-25.798 0.577,-0.359 1.256,-0.526 1.928,-0.526 0.572,0 1.147,0.127 1.666,0.385 1.137,0.559 1.844,1.643 1.844,2.82 l 0,55.01 c 0,1.144 -0.668,2.203 -1.756,2.775 l -40.896,22.829 c 0.462,0.899 2.283,2.801 5.626,4.552 3.524,1.845 6.163,1.148 6.768,0.913 0,0 39.248,-21.004 40.449,-21.628 1.196,-0.625 1.219,-0.718 1.219,-1.786 l 0,-52.2 c 0,-2.603 2.645,-3.67 4.584,-3.67 1.937,0 4.006,1.901 4.006,3.67 l 0,56.21 C 1.756,-1.632 1.084,-0.572 0,0"
           style="fill:#999999;fill-opacity:1;fill-rule:nonzero;stroke:none"
           id="path4022" />
      </g>
    </g>
  </g>
</svg>
